<?xml version="1.0" standalone="no"?>
<!DOCTYPE svg PUBLIC "-//W3C//DTD SVG 20010904//EN"
 "http://www.w3.org/TR/2001/REC-SVG-20010904/DTD/svg10.dtd">
<svg version="1.0" xmlns="http://www.w3.org/2000/svg"
 width="376.000000pt" height="726.000000pt" viewBox="0 0 376.000000 726.000000"
 preserveAspectRatio="xMidYMid meet">

<g transform="translate(0.000000,726.000000) scale(0.100000,-0.100000)"
fill="#000000" stroke="none">
<path d="M250 7130 l0 -120 -120 0 -120 0 0 -130 0 -130 120 0 120 0 0 -125 0
-125 130 0 130 0 0 125 0 125 125 0 125 0 0 130 0 130 -125 0 -125 0 0 120 0
120 -130 0 -130 0 0 -120z"/>
<path d="M1000 7000 l0 -250 255 0 255 0 0 130 0 130 -125 0 -125 0 0 120 0
120 -130 0 -130 0 0 -250z"/>
<path d="M1750 6755 l0 -255 255 0 255 0 0 130 0 130 -125 0 -125 0 0 125 0
125 -130 0 -130 0 0 -255z"/>
<path d="M2500 6505 l0 -255 255 0 255 0 0 130 0 130 -125 0 -125 0 0 125 0
125 -130 0 -130 0 0 -255z"/>
<path d="M750 6385 l0 -125 -250 0 -250 0 0 -125 0 -125 -120 0 -120 0 0 -380
0 -380 120 0 120 0 0 -250 0 -250 125 0 125 0 0 -125 0 -125 125 0 125 0 0
-250 0 -250 125 0 125 0 0 -245 0 -245 -125 0 -125 0 0 -500 0 -500 -125 0
-125 0 0 -375 0 -375 -125 0 -125 0 0 -630 0 -630 125 0 125 0 0 -125 0 -125
125 0 125 0 0 -125 0 -125 505 0 505 0 0 125 0 125 125 0 125 0 0 125 0 125
125 0 125 0 0 250 0 250 125 0 125 0 0 250 0 250 125 0 125 0 0 375 0 375 125
0 125 0 0 500 0 500 125 0 125 0 0 375 0 375 125 0 125 0 0 250 0 250 125 0
125 0 0 380 0 380 -125 0 -125 0 0 125 0 125 -125 0 -125 0 0 120 0 120 250 0
250 0 0 130 0 130 -125 0 -125 0 0 125 0 125 -130 0 -130 0 0 -250 0 -250
-120 0 -120 0 0 125 0 125 -375 0 -375 0 0 125 0 125 -375 0 -375 0 0 125 0
125 -380 0 -380 0 0 -125z"/>
</g>
</svg>
