<?xml version="1.0" standalone="no"?>
<!DOCTYPE svg PUBLIC "-//W3C//DTD SVG 20010904//EN"
 "http://www.w3.org/TR/2001/REC-SVG-20010904/DTD/svg10.dtd">
<svg version="1.0" xmlns="http://www.w3.org/2000/svg"
 width="176.000000pt" height="126.000000pt" viewBox="0 0 176.000000 126.000000"
 preserveAspectRatio="xMidYMid meet">

<g transform="translate(0.000000,126.000000) scale(0.100000,-0.100000)"
fill="#000000" stroke="none">
<path d="M500 1130 l0 -120 -125 0 -125 0 0 -125 0 -125 -120 0 -120 0 0 -130
0 -130 120 0 119 0 3 -122 3 -123 123 -3 122 -3 0 -124 0 -125 380 0 380 0 0
125 0 124 123 3 122 3 3 122 3 122 122 3 122 3 0 125 0 125 -122 3 -123 3 0
124 0 125 -125 0 -125 0 0 120 0 120 -380 0 -380 0 0 -120z"/>
</g>
</svg>
